<svg xmlns="http://www.w3.org/2000/svg" width="32.429" height="19.464" viewBox="0 0 32.429 19.464">
  <path id="Icon_awesome-handshake" data-name="Icon awesome-handshake" d="M22.026,4.5H17.674a1.621,1.621,0,0,0-1.094.426L11.6,9.486c-.005.005-.01.015-.015.02a2.016,2.016,0,0,0-.106,2.838,2.113,2.113,0,0,0,2.843.137c.005-.005.015-.005.02-.01l4.049-3.709a.811.811,0,0,1,1.094,1.2L18.16,11.168l7.378,5.989a3.65,3.65,0,0,1,.4.39v-9.8L23.172,4.976A1.61,1.61,0,0,0,22.026,4.5Zm5.538,3.253V19.1a1.62,1.62,0,0,0,1.621,1.621h3.243V7.753ZM30,19.1a.811.811,0,1,1,.811-.811A.813.813,0,0,1,30,19.1ZM0,20.715H3.243a1.62,1.62,0,0,0,1.621-1.621V7.753H0Zm2.432-3.238a.811.811,0,1,1-.811.811A.813.813,0,0,1,2.432,17.477Zm22.087.942-7.565-6.141-1.52,1.393A3.647,3.647,0,0,1,10.5,8.3l4.145-3.8H10.4a1.619,1.619,0,0,0-1.145.476L6.486,7.743V19.088h.927L12,23.238a3.242,3.242,0,0,0,4.56-.471l.01-.01.907.785a1.883,1.883,0,0,0,2.65-.274l1.591-1.956.274.223a1.619,1.619,0,0,0,2.28-.238l.481-.593a1.624,1.624,0,0,0-.233-2.285Z" transform="translate(0 -4.5)" fill="#4aa347"/>
</svg>
