<svg id="Group_8" data-name="Group 8" xmlns="http://www.w3.org/2000/svg" width="31.899" height="22.15" viewBox="0 0 31.899 22.15">
  <path id="Subtraction_1" data-name="Subtraction 1" d="M12.471,21.313H0V18.649c0-1.977,2.047-3.263,3.765-3.992a17.708,17.708,0,0,1,6.279-1.335,17.736,17.736,0,0,1,6.236,1.317c-1.737.731-3.808,2.019-3.808,4.011v2.664ZM10.044,10.656A5.187,5.187,0,0,1,5.022,5.329,5.188,5.188,0,0,1,10.044,0a5.188,5.188,0,0,1,5.022,5.329A5.188,5.188,0,0,1,10.044,10.656Z" transform="translate(0)" fill="#4aa347"/>
  <path id="Icon_material-person" data-name="Icon material-person" d="M14.37,14.37a4.185,4.185,0,1,0-4.185-4.185A4.184,4.184,0,0,0,14.37,14.37Zm0,2.092c-2.793,0-8.37,1.4-8.37,4.185V22.74H22.74V20.647C22.74,17.864,17.163,16.462,14.37,16.462Z" transform="translate(9.159 -0.589)" fill="#4aa347"/>
</svg>
