<svg xmlns="http://www.w3.org/2000/svg" width="29.962" height="20.974" viewBox="0 0 29.962 20.974">
  <path id="Icon_awesome-book-open" data-name="Icon awesome-book-open" d="M28.206,2.252c-2.851.146-8.516.676-12.014,2.6a.706.706,0,0,0-.378.617V22.506a.827.827,0,0,0,1.211.632c3.6-1.63,8.8-2.075,11.376-2.2a1.543,1.543,0,0,0,1.562-1.435V3.689a1.573,1.573,0,0,0-1.757-1.437Zm-14.435,2.6c-3.5-1.927-9.163-2.456-12.014-2.6A1.573,1.573,0,0,0,0,3.689V19.506a1.542,1.542,0,0,0,1.562,1.435c2.574.122,7.781.567,11.38,2.2a.824.824,0,0,0,1.207-.63V5.463A.693.693,0,0,0,13.771,4.855Z" transform="translate(0 -2.25)" fill="#4aa347"/>
</svg>
