<svg fill="#4AA347" id="Layer_2" enable-background="new 0 0 32 32" height="512" viewBox="0 0 32 32" width="512" xmlns="http://www.w3.org/2000/svg"><g><path d="m9.22754 28.24744c2.01074 1.11395 4.32019 1.75256 6.77923 1.75256 7.73022 0 13.99329-6.27655 13.99329-14.00684 0-7.73022-6.26306-13.99316-13.99329-13.99316s-14.00683 6.26294-14.00683 13.99316c0 2.48621.65216 4.79572 1.77972 6.82007l-1.77972 7.18677zm.77441-18.43573c.32599-.3125.80157-.43475 1.23633-.3396l.44824.09509c.44836.09503.81519.39398.99182.80151l.883 1.95636c.21741.47546.13593 1.04608-.21735 1.44006l-.54346.63855c-.17657.20374-.21729.51617-.08148.7608 1.60309 2.88013 3.70886 3.81757 4.64624 4.10278.27173.09515.58429-.0271.7337-.27173l.39398-.61127c.38043-.58417 1.12762-.78802 1.9563-.38043l1.63031.81519c.62494.29883.91022 1.03241.67926 1.68457-.82867 2.4046-2.94806 2.10577-2.94806 2.10577-4.70062-.12231-8.38239-4.45612-9.97186-6.68408-.73364-1.04614-1.18195-2.30957-1.04614-3.60022.13593-1.27709.73371-2.0786 1.20917-2.51335z"/></g></svg>